inDegrees=no
num_controls=7
num_derivatives=13
num_iterations=154
num_multipliers=7
num_parameters=0
num_slacks=7
num_states=26
objective=5.807259
objective_accelerations=0.478328
objective_balance=0.057516
objective_effort=0.424692
objective_height=4.752471
objective_ligament=0.094252
solver_duration=1680.991101
status=Solve_Succeeded
success=true
DataType=double
version=3
OpenSimVersion=4.4-2022-07-23-0e9fedc
endheader
time	/jointset/ground_pelvis/pelvis_tilt/value	/jointset/ground_pelvis/pelvis_tx/value	/jointset/ground_pelvis/pelvis_ty/value	/jointset/hip_l/hip_flexion_l/value	/jointset/hip_l/hip_adduction_l/value	/jointset/hip_l/hip_rotation_l/value	/jointset/back/lumbar_extension/value	/jointset/patellofemoral_l/patellar_flexion_l/value	/jointset/knee_l/knee_flexion_l/value	/jointset/knee_l/knee_adduction_l/value	/jointset/knee_l/knee_rotation_l/value	/jointset/ankle_l/ankle_angle_l/value	/jointset/subtalar_l/subtalar_angle_l/value	/jointset/ground_pelvis/pelvis_tilt/speed	/jointset/ground_pelvis/pelvis_tx/speed	/jointset/ground_pelvis/pelvis_ty/speed	/jointset/hip_l/hip_flexion_l/speed	/jointset/hip_l/hip_adduction_l/speed	/jointset/hip_l/hip_rotation_l/speed	/jointset/back/lumbar_extension/speed	/jointset/patellofemoral_l/patellar_flexion_l/speed	/jointset/knee_l/knee_flexion_l/speed	/jointset/knee_l/knee_adduction_l/speed	/jointset/knee_l/knee_rotation_l/speed	/jointset/ankle_l/ankle_angle_l/speed	/jointset/subtalar_l/subtalar_angle_l/speed	/forceset/tau_hip_flexion_l	/forceset/tau_hip_adduction_l	/forceset/tau_hip_rotation_l	/forceset/tau_knee_flexion_l	/forceset/tau_ankle_angle_l	/forceset/tau_subtalar_angle_l	/forceset/tau_lumbar_extension	lambda_cid13_p0	lambda_cid13_p1	lambda_cid13_p2	lambda_cid13_p3	lambda_cid13_p4	lambda_cid13_p5	lambda_cid14_p0	/jointset/ground_pelvis/pelvis_tilt/accel	/jointset/ground_pelvis/pelvis_tx/accel	/jointset/ground_pelvis/pelvis_ty/accel	/jointset/hip_l/hip_flexion_l/accel	/jointset/hip_l/hip_adduction_l/accel	/jointset/hip_l/hip_rotation_l/accel	/jointset/back/lumbar_extension/accel	/jointset/patellofemoral_l/patellar_flexion_l/accel	/jointset/knee_l/knee_flexion_l/accel	/jointset/knee_l/knee_adduction_l/accel	/jointset/knee_l/knee_rotation_l/accel	/jointset/ankle_l/ankle_angle_l/accel	/jointset/subtalar_l/subtalar_angle_l/accel	gamma_cid13_p0	gamma_cid13_p1	gamma_cid13_p2	gamma_cid13_p3	gamma_cid13_p4	gamma_cid13_p5	gamma_cid14_p0
1.5	0.07781265055569454	0.03139418787286775	0.8698345375054365	0.5210014175323709	-0.3238245610806814	-0.1433712892552195	-0.7789270878981565	0.7599876795039031	0.7599876795039138	-0.1040452066451689	-0.1745290096353856	0.2197610417787467	0.04877363897237908	0.1396507515910703	0.1514879536103587	0.3548575819291219	-1.589172242807611	0.1034375945564272	-0.6202898151609407	0.8475891470135193	-1.949569591082031	-1.949569591082017	-0.1322277802245052	-8.63757138292507e-06	-0.6210216987318725	-0.1156731654335558	-0.1458311904642474	0.03849651029415847	-0.005738239873920742	-0.23140574867131	0.009322604694101757	0.03193917092243743	0.246752451856047	-39.13130402786473	-9.742867201304179	4.209627810099708	-1.414728479129109	-670.7881440722929	-69.8421098167307	-15.91914377568686	-0.2256322436301457	0.41786695983685	-0.5730550235169141	-0.3661073598920159	0.4017694008429811	-0.3376852783492377	1.658254567730543	-0.984270063247632	-0.9842700632476218	-0.2974436326702447	0.02961714415938296	-0.38696166083484	0.400633377994249	2.64984212148233e-07	1.210065496151857e-06	-1.268375965024708e-06	4.885014027316757e-08	3.422259048721087e-07	1.044693098825237e-06	2.473230564774463e-07
1.51	0.0791980381815047	0.03292977623688442	0.8733537711918076	0.5050927767823912	-0.3227707383400117	-0.1495916443267608	-0.7703698052277319	0.7404451382566264	0.7404451382565292	-0.1053829564234356	-0.1745293699835201	0.2135321205186283	0.04763626947512464	0.137419799699349	0.155608148360539	0.34891634333286	-1.592347420125811	0.1073200857877024	-0.6236913210540307	0.8637396606934994	-1.958657027752498	-1.958657027752505	-0.1353414310577155	-5.086902340190524e-05	-0.6246634039507403	-0.1117838143300877	-0.1401415924226983	0.03710032457109162	-0.005556088825120222	-0.2275857191947692	0.01166731404742198	0.03129645737925531	0.2407699687807448	-38.20664414423163	-9.671338529060247	4.250424840412346	-1.524344697654779	-667.0730978392966	-69.85444786712365	-16.60687992119383	-0.2228779904447534	0.405899753040197	-0.6155332881218026	-0.2619561085804579	0.3803268337977408	-0.3277166939575162	1.57429081127288	-0.8287724925219668	-0.8287724925250922	-0.3209528178102378	-0.0193051193164274	-0.3378426104227769	0.385381658017628	1.726075767151398e-07	1.607817448749721e-06	-6.830270033278752e-07	1.474385168643288e-07	2.707685043157994e-07	1.002701468475437e-06	2.049296157668763e-07
1.52	0.08056090602269858	0.03450592735248848	0.8768114174901278	0.4891586376210693	-0.3216783231171092	-0.1558432811470764	-0.7616548492118812	0.7208201642378381	0.72082016423781	-0.1067523681117119	-0.1745297850123433	0.20726976867472	0.04653825262520553	0.1351467946675929	0.1596005039278399	0.3425401043189287	-1.594271925075869	0.1111560910000856	-0.6265461649138905	0.8791238160991506	-1.966056145365992	-1.966056145366019	-0.1385601622574865	-1.957365277028619e-05	-0.6277078154900106	-0.1078026359668419	-0.1344519943811706	0.03570413884802754	-0.005373937774933508	-0.2237656897182874	0.01401202340074341	0.0306537438360686	0.234787485705422	-37.28087722891979	-9.601431736047111	4.293112393872783	-1.663545798159711	-663.3638710314589	-69.89464545120059	-17.28545035865599	-0.2340428716372061	0.3922991232609659	-0.6600551070508082	-0.1159728862636376	0.3924721970644022	-0.2283528717033588	1.504982912864629	-0.6466062518527637	-0.6466062518527429	-0.3184597059823937	0.04432250868932243	-0.2675029249153959	0.4189988299497092	1.158670675452699e-07	1.883245888126664e-06	-3.333732079142605e-07	2.112872871433412e-07	2.289256014409599e-07	9.865238694598718e-07	1.828417553788549e-07
1.53	0.08190077159167421	0.03612134994230504	0.8802032164274538	0.4732114857277965	-0.3205477525776796	-0.1621214010643643	-0.7527900245361669	0.7011295946393198	0.7011295946392849	-0.1081540454338145	-0.1745299463222076	0.2009799781748479	0.04548056498481311	0.1328132416127233	0.1634607097176494	0.3357557650619303	-1.594949527558931	0.1149503210822321	-0.6290016421986244	0.8936986884759873	-1.971780341300572	-1.971780341300594	-0.1417813548040351	-6.249443285785128e-06	-0.630149730249041	-0.1037186022010384	-0.1284142686834006	0.03391159012742249	-0.005272795301592054	-0.2206876028678983	0.01709109797843693	0.02999599079362377	0.2286063289073804	-36.14069469555989	-9.556129226024019	4.332403928885921	-1.929572780488087	-659.968572272825	-70.06541080617619	-17.95561634354595	-0.2349862603812183	0.3794361884830164	-0.6971684491972592	-0.01233066227634263	0.3715420655339362	-0.2425407070217346	1.412374814736679	-0.4937477196541872	-0.4937477196533769	-0.3245396337534329	-0.01920808742114599	-0.2173867096410088	0.4052372781647755	9.69899425300745e-08	2.028705594706381e-06	-2.341455266765629e-07	2.382252257156957e-07	2.185481023526819e-07	9.977736787369303e-07	1.82328574083541e-07
1.54	0.08321690668250439	0.03777468556634726	0.8835252629493754	0.4572638224631048	-0.3193795110070712	-0.1684217548645273	-0.7437837240537567	0.681390098790387	0.6813900987903323	-0.1095880528023644	-0.1745297834826767	0.1946687983357388	0.04446414400773315	0.1304006990390869	0.167183110772969	0.3285896212380078	-1.594374199359964	0.1186902972341175	-0.6309929414898862	0.9074189774385909	-1.975841395450893	-1.975841395450908	-0.1450261715410648	4.525618622426518e-05	-0.6319856833378378	-0.09954930330446975	-0.1223765429855939	0.03211904140688081	-0.005171652828495075	-0.2176095160174769	0.02017017255615676	0.02933823775126582	0.2224251721093481	-34.99954164648353	-9.511597813605011	4.372505577461708	-2.221686546973642	-656.580133006529	-70.25899687183254	-18.61318707096928	-0.2498407753906947	0.3647381763629666	-0.7364160204356056	0.1346132501423596	0.3816214110121631	-0.1355172730089543	1.334066230017864	-0.3139778950007929	-0.313977895000791	-0.3231845440786449	0.05195879269435956	-0.146310590868721	0.4360518561027059	6.960405988272739e-08	2.092100056608516e-06	-1.206958059737977e-07	2.603515804979531e-07	1.879161946201469e-07	9.6086899091304e-07	1.742702605937322e-07
1.55	0.08450840177801697	0.03946448612549807	0.8867737654699402	0.4413285704880319	-0.3181740348227757	-0.1747400228762391	-0.7346444108247604	0.6616186490091713	0.6616186490090838	-0.1110541091639557	-0.174529085571762	0.1883424161301195	0.04349003449226766	0.1278911462017473	0.1707467056447053	0.3210540417267903	-1.592461834199417	0.1223937260516045	-0.6325949237365455	0.9202873653915995	-1.978156420872494	-1.978156420872541	-0.1481779075686679	8.802538462936213e-05	-0.6331867650278539	-0.09525930042291107	-0.1164486392444338	0.03045366565903273	-0.00513249624395828	-0.2143982524203508	0.02292269299232694	0.02858572026381583	0.2163282148779666	-33.98428449679475	-9.399182301756651	4.396433482998496	-2.367769515789759	-653.4214228575498	-70.33628435687338	-19.24687666505549	-0.2526073478445745	0.3476830600453902	-0.7706342956931365	0.2516787946391955	0.3627783737403177	-0.1625423665378253	1.239779632388159	-0.1464735187165042	-0.1464735187212922	-0.3097652955269669	-0.02047910220191741	-0.09134986595008608	0.427137553646178	3.241460865920604e-08	2.060941084425616e-06	9.140177590892561e-09	2.769341539568382e-07	1.339476856235781e-07	8.68481947733712e-07	1.575186426189622e-07
1.56	0.08577458238315687	0.04118902521685888	0.8899452111195472	0.4254188682936762	-0.3169319093989928	-0.181072311443618	-0.7253811028053468	0.6418328072430505	0.6418328072431027	-0.1125514023183931	-0.1745281429863677	0.1820071545260239	0.04255915761551046	0.1253378009668898	0.1741308172149661	0.3131782470464148	-1.589264243213728	0.1260201451340309	-0.6337970526249679	0.9322179355224692	-1.978719792413165	-1.978719792413244	-0.1512735301333197	9.41911584229237e-05	-0.6337615630331517	-0.09090277556280552	-0.1105207355033063	0.02878828991118599	-0.005093339658151426	-0.2111869888233011	0.02567521342849755	0.0278332027763727	0.2102312576465616	-32.9723265348058	-9.28612729948021	4.420189118213026	-2.526659963344074	-650.3308694501575	-70.43446706913997	-19.85222885679209	-0.258599254894416	0.3288415160678629	-0.8044590542672202	0.3916584151708316	0.3662194639998052	-0.05554660136183781	1.146502665589938	0.03635288118522813	0.03635288118522838	-0.3119618514884222	0.04463810777174817	-0.021053853925093	0.4493562518119667	1.651494769324834e-08	2.010074483685969e-06	3.960116273279666e-08	2.786887823172372e-07	1.085463530372836e-07	8.169655305984424e-07	1.508969620080094e-07
1.57	0.08701493012875812	0.0429464968239549	0.8930362783176266	0.4095476238271202	-0.3156539648118316	-0.1874143317521684	-0.7160031780118544	0.622050112603632	0.6220501126036754	-0.1140796059224742	-0.1745271217141458	0.1756693074809372	0.04167212302729069	0.1227194416141346	0.1773319019529783	0.3049870907189934	-1.584766082221682	0.1295534283857607	-0.6345453938075352	0.9432064811551586	-1.977522804058406	-1.977522804058472	-0.1543535333351201	9.909643656152448e-05	-0.6336993553038154	-0.08649354106159367	-0.104436145102968	0.02683426782733189	-0.005138078192801474	-0.2084099390206014	0.02886825548542233	0.02710890179721928	0.2041066271784358	-31.83727560955122	-9.203557455640452	4.445010034685314	-2.775176425694841	-647.5564681094692	-70.65196861651943	-20.4249057811185	-0.265315374976723	0.3110520644663181	-0.8336342418736211	0.5116611923740944	0.3443776592637557	-0.07509093209653418	1.050949208744884	0.2057894409674025	0.2057894409693897	-0.3036789701281256	-0.02323941735022109	0.0361838623702003	0.4380117452195745	2.722752454924496e-08	1.934573347250388e-06	-5.415660015378062e-08	2.619084793045287e-07	1.188539909638318e-07	8.165373960182455e-07	1.56937703101828e-07
1.58	0.0882287220609239	0.04473504130079002	0.8960439958884528	0.3937279142207059	-0.3143411884114506	-0.1937619580836336	-0.706520184022708	0.602288271373468	0.6022882713734353	-0.1156381414417211	-0.1745263826201909	0.1693353476683433	0.04082944172327145	0.1200266382809828	0.1803453911627828	0.2965083215958155	-1.578957271183535	0.1329865077776808	-0.634918257205798	0.9532317746533369	-1.974549110569801	-1.974549110569853	-0.1573399131610192	3.775550728298598e-05	-0.6329841165341911	-0.08203211872263552	-0.0983515547026864	0.02488024574339665	-0.005182816727803546	-0.2056328892179071	0.03206129754232085	0.02638460081796332	0.1979819967102956	-30.70643512449152	-9.118871963610625	4.467919682697986	-3.035086153345968	-644.8645676460428	-70.89313236771982	-20.96064359464483	-0.2734880509738989	0.2913224104263518	-0.8619816134185575	0.6537884243911204	0.3461786920376314	0.01954895549840962	0.9538522386875831	0.3916939079545829	0.3916939079545829	-0.2932371763083135	0.03138886628757524	0.1095523541324809	0.4597938193609552	2.356631769304313e-08	1.864332250964121e-06	-7.442215360602386e-08	2.519376537179245e-07	1.140260471591757e-07	7.809353328362166e-07	1.543520683831563e-07
1.59	0.08941518050258589	0.04655271774647294	0.8989655662055439	0.3779730335084055	-0.3129944461953223	-0.2001113708368991	-0.6969417928592023	0.582565188355019	0.5825651883550602	-0.1172257577161481	-0.1745264010313461	0.1630118701637991	0.04003183308824235	0.1172567285695957	0.1831519957276174	0.2877668683320213	-1.571795734722551	0.1363479139844803	-0.634889559841472	0.9622734133979597	-1.969764323056922	-1.969764323056923	-0.160159047089494	-3.979410089708862e-05	-0.6316012952922511	-0.07747662155325476	-0.0923534680378352	0.02311438934840464	-0.005283662547515422	-0.2027992489899922	0.03507215085177451	0.02551468058360052	0.1919644800468417	-29.66051733512612	-8.947708793874092	4.467485972253644	-3.187730924923589	-642.4645755187231	-70.98494995398337	-21.45527002115912	-0.2800101421431123	0.269694297324768	-0.886043498808225	0.7807827320069139	0.3287975090504942	0.005851282717338194	0.8533629946065902	0.5673203725680391	0.5673203725756141	-0.2723226755082127	-0.02706842469444412	0.1692050932145594	0.455092002393613	3.978329417159055e-10	1.80122978059478e-06	5.051720031180819e-09	2.512082617810328e-07	8.865695671931499e-08	6.975972236945612e-07	1.400592093475344e-07
